<?xml version="1.0" encoding="UTF-8" standalone="no"?>
<!-- Generator: Adobe Illustrator 25.4.1, SVG Export Plug-In . SVG Version: 6.00 Build 0)  -->

<svg
   version="1.1"
   id="Layer_1"
   x="0px"
   y="0px"
   viewBox="0 0 1288.8 344.1"
   style="enable-background:new 0 0 1288.8 344.1;"
   xml:space="preserve"
   sodipodi:docname="logo-dark.svg"
   inkscape:version="1.2.1 (9c6d41e410, 2022-07-14)"
   xmlns:inkscape="http://www.inkscape.org/namespaces/inkscape"
   xmlns:sodipodi="http://sodipodi.sourceforge.net/DTD/sodipodi-0.dtd"
   xmlns="http://www.w3.org/2000/svg"
   xmlns:svg="http://www.w3.org/2000/svg"><defs
   id="defs969" /><sodipodi:namedview
   id="namedview967"
   pagecolor="#ffffff"
   bordercolor="#000000"
   borderopacity="0.25"
   inkscape:showpageshadow="2"
   inkscape:pageopacity="0.0"
   inkscape:pagecheckerboard="0"
   inkscape:deskcolor="#d1d1d1"
   showgrid="false"
   inkscape:zoom="1.1708566"
   inkscape:cx="644.82706"
   inkscape:cy="172.52327"
   inkscape:window-width="1920"
   inkscape:window-height="974"
   inkscape:window-x="1909"
   inkscape:window-y="-1"
   inkscape:window-maximized="1"
   inkscape:current-layer="text1079" />
<style
   type="text/css"
   id="style944">
	.st0{fill:#F4F4F4;stroke:#F4F4F4;stroke-width:2;stroke-miterlimit:10;}
	.st1{fill:#4E5CA6;}
	.st2{enable-background:new    ;}
	.st3{fill:#303031;}
</style>
<path
   class="st0"
   d="M97.9,7.5h150.5c49.2,0,89.1,39.9,89.1,89.1v150.5c0,49.2-39.9,89.1-89.1,89.1H97.9  c-49.2,0-89.1-39.9-89.1-89.1V96.6C8.8,47.4,48.7,7.5,97.9,7.5z"
   id="path946" />



<text
   xml:space="preserve"
   style="font-size:229.107px;fill:#0066ff;stroke:#0066ff;stroke-width:19.0923"
   x="110.60768"
   y="244.4906"
   id="text1025"
   transform="scale(0.94661239,1.0563986)"><tspan
     sodipodi:role="line"
     id="tspan1023"
     x="110.60768"
     y="244.4906"
     style="stroke-width:19.0923">T</tspan></text><g
   aria-label="Thomas Nixon"
   transform="scale(0.71787462,1.3930009)"
   id="text1079"
   style="font-size:159.433px;stroke:#000000;stroke-width:13.286"><path
     d="M 629.0922,79.933267 H 587.67698 V 182.14788 H 572.26305 V 79.933267 H 530.84784 V 66.231994 h 98.24436 z"
     id="path1391" /><path
     d="M 729.29128,186.43972 H 714.65583 V 136.9283 q 0,-5.99431 -0.70064,-11.21014 -0.70063,-5.29367 -2.56899,-8.2519 -1.9462,-3.26962 -5.60506,-4.82658 -3.65887,-1.63481 -9.49748,-1.63481 -5.9943,0 -12.53355,2.95823 -6.53924,2.95822 -12.53355,7.55127 v 64.92535 H 656.58111 V 65.308003 h 14.63545 v 43.828507 q 6.85064,-5.68291 14.16836,-8.87469 7.31773,-3.191774 15.0247,-3.191774 14.09051,0 21.48608,8.485454 7.39558,8.48544 7.39558,24.44431 z"
     id="path1393" /><path
     d="m 837.53238,141.16109 q 0,21.25255 -10.89874,33.55255 -10.89874,12.30001 -29.19306,12.30001 -18.45001,0 -29.34875,-12.30001 -10.82089,-12.3 -10.82089,-33.55255 0,-21.25254 10.82089,-33.55255 10.89874,-12.377852 29.34875,-12.377852 18.29432,0 29.19306,12.377852 10.89874,12.30001 10.89874,33.55255 z m -15.10254,0 q 0,-16.89304 -6.61709,-25.0671 -6.6171,-8.2519 -18.37217,-8.2519 -11.91076,0 -18.52785,8.2519 -6.53925,8.17406 -6.53925,25.0671 0,16.34811 6.61709,24.83356 6.6171,8.4076 18.45001,8.4076 11.67723,0 18.29432,-8.32975 6.69494,-8.4076 6.69494,-24.91141 z"
     id="path1395" /><path
     d="m 989.45811,184.60036 h -14.63545 v -49.51142 q 0,-5.60507 -0.54494,-10.82089 -0.46709,-5.21583 -2.1019,-8.32976 -1.79051,-3.34747 -5.13798,-5.06013 -3.34747,-1.71265 -9.65317,-1.71265 -6.15,0 -12.3,3.11392 -6.15001,3.03608 -12.30001,7.78482 0.23354,1.7905 0.38924,4.2038 0.1557,2.33544 0.1557,4.67088 v 55.66143 h -14.63545 v -49.51142 q 0,-5.76077 -0.54494,-10.89874 -0.46709,-5.21583 -2.1019,-8.32975 -1.79051,-3.34747 -5.13798,-4.98229 -3.34747,-1.71265 -9.65317,-1.71265 -5.99431,0 -12.06646,2.95823 -5.99431,2.95822 -11.98862,7.55127 v 64.92535 H 862.56563 V 97.64398 h 14.63545 v 9.65317 q 6.85064,-5.68291 13.62343,-8.874688 6.85064,-3.191774 14.5576,-3.191774 8.87469,0 15.02469,3.736711 6.22786,3.736711 9.26393,10.353801 8.87469,-7.47342 16.19242,-10.743042 7.31772,-3.34747 15.64747,-3.34747 14.32406,0 21.09685,8.718992 6.85064,8.64114 6.85064,24.21077 z"
     id="path1397" /><path
     d="m 1087.5908,185.21348 h -14.5576 v -9.26393 q -1.9462,1.32342 -5.2936,3.73671 -3.2697,2.33544 -6.3836,3.73671 -3.6588,1.79051 -8.4076,2.95823 -4.7487,1.24557 -11.1323,1.24557 -11.755,0 -19.9291,-7.78481 -8.174,-7.78482 -8.174,-19.85128 0,-9.88672 4.2038,-15.95887 4.2816,-6.15 12.1443,-9.65317 7.9405,-3.50317 19.0728,-4.74874 11.1322,-1.24557 23.8993,-1.86835 v -2.2576 q 0,-4.98228 -1.7905,-8.2519 -1.7126,-3.26962 -4.9823,-5.13798 -3.1139,-1.79051 -7.4734,-2.41329 -4.3595,-0.62279 -9.1082,-0.62279 -5.7608,0 -12.845,1.55697 -7.0841,1.47911 -14.6354,4.35949 h -0.7785 v -14.86899 q 4.2817,-1.167727 12.3779,-2.568994 8.0962,-1.401267 15.9588,-1.401267 9.1861,0 15.9589,1.556963 6.8506,1.479115 11.8329,5.137978 4.9045,3.58102 7.4735,9.26393 2.5689,5.68291 2.5689,14.09051 z m -14.5576,-21.40824 v -24.21078 q -6.6949,0.38925 -15.8031,1.16773 -9.0304,0.77848 -14.3241,2.25759 -6.3057,1.79051 -10.1981,5.60507 -3.8924,3.73671 -3.8924,10.3538 0,7.47342 4.5152,11.28798 4.5152,3.73671 13.7791,3.73671 7.707,0 14.0905,-2.95823 6.3836,-3.03607 11.8329,-7.23987 z"
     id="path1399" /><path
     d="m 1182.6536,158.92013 q 0,11.91077 -9.8867,19.53989 -9.8089,7.62912 -26.8576,7.62912 -9.6532,0 -17.7494,-2.2576 -8.0184,-2.33544 -13.4677,-5.06013 v -16.42596 h 0.7785 q 6.9284,5.21583 15.4139,8.32975 8.4854,3.03608 16.2703,3.03608 9.6531,0 15.1025,-3.11392 5.4494,-3.11393 5.4494,-9.80887 0,-5.13798 -2.9583,-7.78481 -2.9582,-2.64684 -11.3658,-4.5152 -3.1139,-0.70063 -8.1741,-1.63481 -4.9822,-0.93418 -9.1082,-2.02405 -11.4437,-3.03608 -16.2702,-8.87469 -4.7488,-5.91646 -4.7488,-14.47975 0,-5.37152 2.1798,-10.12026 2.2576,-4.74874 6.7728,-8.48545 4.3594,-3.658861 11.0544,-5.760761 6.7728,-2.179748 15.1025,-2.179748 7.7848,0 15.7254,1.946204 8.0183,1.868356 13.312,4.593035 v 15.64748 h -0.7785 q -5.6051,-4.12595 -13.6234,-6.92848 -8.0184,-2.88038 -15.7253,-2.88038 -8.0184,0 -13.5456,3.11392 -5.5272,3.03608 -5.5272,9.10823 0,5.37153 3.3474,8.09621 3.2697,2.72469 10.5874,4.43735 4.0481,0.93417 9.0304,1.86835 5.0601,0.93418 8.4076,1.71266 10.1981,2.33544 15.7253,8.01836 5.5272,5.76076 5.5272,15.25823 z"
     id="path1401" /><path
     d="m 1331.4026,183.37412 h -19.0728 L 1257.369,79.680391 V 183.37412 h -14.4019 V 67.458233 h 23.8994 l 50.1342,94.663337 V 67.458233 h 14.4019 z"
     id="path1403" /><path
     d="m 1385.1162,86.765092 h -16.5038 V 71.584704 h 16.5038 z m -0.9342,101.513988 h -14.6354 V 101.3227 h 14.6354 z"
     id="path1405" /><path
     d="m 1501.5077,185.8266 h -18.45 l -24.6778,-33.39686 -24.8336,33.39686 h -17.0487 l 33.9418,-43.36142 -33.6304,-43.594962 h 18.45 l 24.5221,32.851922 24.6,-32.851922 h 17.1266 l -34.1753,42.816482 z"
     id="path1407" /><path
     d="m 1604.7209,141.77421 q 0,21.25255 -10.8988,33.55255 -10.8987,12.30001 -29.193,12.30001 -18.45,0 -29.3488,-12.30001 -10.8209,-12.3 -10.8209,-33.55255 0,-21.25254 10.8209,-33.55255 10.8988,-12.377853 29.3488,-12.377853 18.2943,0 29.193,12.377853 10.8988,12.30001 10.8988,33.55255 z m -15.1026,0 q 0,-16.89304 -6.6171,-25.0671 -6.6171,-8.2519 -18.3721,-8.2519 -11.9108,0 -18.5279,8.2519 -6.5392,8.17406 -6.5392,25.0671 0,16.34811 6.6171,24.83356 6.617,8.4076 18.45,8.4076 11.6772,0 18.2943,-8.32975 6.6949,-8.4076 6.6949,-24.91141 z"
     id="path1409" /><path
     d="m 1710.7924,185.21348 h -14.6355 v -49.51142 q 0,-5.99431 -0.7006,-11.21014 -0.7006,-5.29367 -2.569,-8.2519 -1.9462,-3.26962 -5.605,-4.82658 -3.6589,-1.63481 -9.4975,-1.63481 -5.9943,0 -12.5336,2.95823 -6.5392,2.95822 -12.5335,7.55127 v 64.92535 h -14.6355 V 98.257099 h 14.6355 v 9.653171 q 6.8506,-5.68291 14.1683,-8.874689 7.3178,-3.191774 15.0247,-3.191774 14.0905,0 21.4861,8.485453 7.3956,8.48544 7.3956,24.44431 z"
     id="path1411" /></g></svg>
